<?xml version="1.0" standalone="no"?>
<!DOCTYPE svg PUBLIC "-//W3C//DTD SVG 20010904//EN"
 "http://www.w3.org/TR/2001/REC-SVG-20010904/DTD/svg10.dtd">
<svg version="1.0" xmlns="http://www.w3.org/2000/svg"
 width="408.000000pt" height="457.000000pt" viewBox="0 0 408.000000 457.000000"
 preserveAspectRatio="xMidYMid meet">

<g transform="translate(0.000000,457.000000) scale(0.100000,-0.100000)"
fill="#000000" stroke="none">
<path d="M1825 4231 l-610 -338 -606 -1139 c-334 -626 -604 -1142 -600 -1146
3 -4 78 -47 165 -97 135 -76 163 -88 180 -79 12 6 293 163 625 350 331 187
607 336 611 331 5 -4 187 -415 405 -913 218 -498 404 -912 413 -921 9 -9 113
-75 230 -148 l213 -131 614 356 614 355 -109 317 c-59 174 -149 436 -199 581
-50 146 -91 265 -91 267 0 1 -62 4 -137 7 -150 5 -225 23 -338 79 -185 93
-324 266 -376 466 -25 95 -27 251 -4 337 47 180 176 350 338 445 20 12 37 27
37 33 0 11 -377 1118 -383 1123 -5 4 -377 204 -379 204 -2 -1 -277 -153 -613
-339z m738 178 c62 -33 115 -64 119 -67 4 -4 -240 -143 -542 -310 l-549 -302
-127 66 c-109 58 -124 68 -108 78 121 71 1072 594 1082 595 7 1 63 -26 125
-60z m-1154 -680 c75 -40 138 -73 140 -75 4 -4 1208 -3488 1206 -3492 -6 -8
-282 172 -291 191 -7 12 -249 564 -539 1227 -291 663 -535 1213 -543 1223 -20
23 -44 21 -69 -5 -12 -13 -236 -302 -498 -643 -263 -341 -480 -623 -484 -627
-7 -8 -211 101 -211 112 0 4 248 474 551 1046 303 571 560 1056 570 1077 11
20 22 37 26 37 3 0 67 -32 142 -71z"/>
<path d="M3433 3035 c-227 -61 -378 -281 -343 -497 60 -379 545 -520 815 -237
237 248 112 644 -230 734 -72 18 -172 18 -242 0z m188 -75 c76 -14 167 -61
218 -113 l43 -45 -17 -54 c-72 -222 -278 -380 -515 -395 l-85 -5 -32 49 c-73
108 -87 233 -40 337 50 109 168 202 287 225 63 12 80 12 141 1z"/>
</g>
</svg>
